<svg fill="none" height="24" viewBox="0 0 24 24" width="24" xmlns="http://www.w3.org/2000/svg" xmlns:xlink="http://www.w3.org/1999/xlink"><linearGradient id="a"><stop offset="0" stop-color="#b77af4"/><stop offset="1" stop-color="#773adc"/></linearGradient><linearGradient id="b" gradientUnits="userSpaceOnUse" x1="5.2666" x2="11.6333" xlink:href="#a" y1="5.8" y2="5.8"/><linearGradient id="c" gradientUnits="userSpaceOnUse" x1="12.1445" x2="18.5001" xlink:href="#a" y1="5.85554" y2="5.85554"/><linearGradient id="d" gradientUnits="userSpaceOnUse" x1="2.01123" x2="8.36679" xlink:href="#a" y1="11.7778" y2="11.7778"/><linearGradient id="e" gradientUnits="userSpaceOnUse" x1="8.8667" x2="15.2223" xlink:href="#a" y1="11.7333" y2="11.7333"/><linearGradient id="f" gradientUnits="userSpaceOnUse" x1="15.7222" x2="22.0888" xlink:href="#a" y1="11.7889" y2="11.7889"/><linearGradient id="g" gradientUnits="userSpaceOnUse" x1="5.18896" x2="11.5556" xlink:href="#a" y1="17.8222" y2="17.8222"/><linearGradient id="h" gradientUnits="userSpaceOnUse" x1="12.0557" x2="18.4223" xlink:href="#a" y1="17.8667" y2="17.8667"/><path d="m8.44438 3-3.17778.58889v4.33333l3.17778.67778 3.18892-1.27778v-3.23333z" fill="url(#b)"/><path d="m5.2666 3.58888v4.33333l3.21111.67778v-5.55556zm1.35556 4-.9-.17778v-3.33333l.9-.14445zm1.4.25555-1.03334-.16666v-3.81111l1.03334-.17778z" fill="#341a6e"/><path d="m15.3223 3.05554-3.1778.58889v4.33333l3.1778.67778 3.1778-1.28889v-3.22222z" fill="url(#c)"/><path d="m12.1445 3.64442v4.33333l3.1889.67778v-5.55555zm1.3445 4-.9-.17778v-3.33333l.9-.14445zm1.4.25556-1.0334-.16667v-3.81111l1.0334-.18889z" fill="#341a6e"/><path d="m5.18901 8.97778-3.17778.58889v4.33333l3.17778.6778 3.18889-1.2778v-3.2333z" fill="url(#d)"/><path d="m2 9.56667v4.30003l3.21111.6777v-5.55551zm1.34444 4.01113-.9-.1889v-3.3333l.9-.1556zm1.41112.2889-1.03334-.1667v-3.85555l1.03334-.17778z" fill="#341a6e"/><path d="m12.0445 8.93335-3.1778.58889v4.33336l3.1778.6889 3.1778-1.2889v-3.2334z" fill="url(#e)"/><path d="m8.8667 9.52222v4.34448l3.2.6777v-5.55551zm1.3444 4.01108-.89996-.1889v-3.3333l.89996-.15554zm1.4.2445-1.0333-.1667v-3.8111l1.0333-.17778z" fill="#341a6e"/><path d="m18.8999 8.98889-3.1777.58889v4.33332l3.1777.6778 3.1889-1.2778v-3.2333z" fill="url(#f)"/><path d="m15.7222 9.57778v4.28892l3.2111.6777v-5.55551zm1.3555 4.01112-.9-.1889v-3.3333l.9-.15559zm1.4.2444-1.0333-.1666v-3.81114l1.0333-.17778z" fill="#341a6e"/><path d="m8.36674 15.0222-3.17778.5778v4.3333l3.17778.6889 3.18886-1.2889v-3.2222z" fill="url(#g)"/><path d="m5.18896 15.6v4.3333l3.21112.6889v-5.6444zm1.35556 4.0111-.9-.1889v-3.3333l.9-.1556zm1.4.2556-1.03333-.1667v-3.8222l1.03333-.1778z" fill="#341a6e"/><path d="m15.2334 15.0667-3.1777.5888v4.3334l3.1777.6778 3.1889-1.2778v-3.2334z" fill="url(#h)"/><path d="m12.0557 15.6555v4.3334l3.2111.6777v-5.5555zm1.3555 4.0111-.9-.1888v-3.3334l.9-.1555zm1.4.2445-1.0333-.1667v-3.8111l1.0333-.1778z" fill="#341a6e"/></svg>